# xmcd
#
# Track frame offsets:
#	150
#	19060
#	42017
#	64355
#	83315
#	107610
#	125682
#	143432
#	159817
#	178532
#	201582
#	221192
#	233990
#	252862
#	266487
#	285687
#
# Disc length: 4079 seconds
#
# Revision: 0
# Processed by: cddbd v1.5.2PL0 Copyright (c) Steve Scherf et al.
# Submitted via: EZCDAudioConverter 1.3.4.1
#
DISCID=de0fed10
DTITLE=Various  - The Soul Train Christmas Starfest
DYEAR=1997
DGENRE=Christmas
TTITLE0=Boyz II Men feat. Brian McKnight - Let It Snow
TTITLE1=Luther Vandross - Every Year, Every Christmas
TTITLE2=Simone Hines - God Bless the Dreamer
TTITLE3=Az Yet - O Come All Ye Faithful
TTITLE4=En Vogue - Silent Nite (Happy Holiday mix)
TTITLE5=The Isley Brothers feat. Ronald Isley - Special Gift
TTITLE6=Rome - Have Yourself a Merry Little Christmas
TTITLE7=Natalie Cole - The Christmas Song (Chestnuts Roasting on an Open Fire)
TTITLE8=Immature - Santa Claus Is Coming to Town
TTITLE9=Total Commitment - Silver Bells
TTITLE10=Patti LaBelle - This Christmas (Hang All the Mistletoe)
TTITLE11=Stevie Wonder - Someday at Christmas
TTITLE12=New Edition - It's Christmas (All Over the World)
TTITLE13=James Brown - Santa Claus Goes Straight to the Ghetto
TTITLE14=Kirk Franklin and the Family - There's No Christmas Without You
TTITLE15=Johnny Gill - Give Love on Christmas Day
EXTD=
EXTT0=
EXTT1=
EXTT2=
EXTT3=
EXTT4=
EXTT5=
EXTT6=
EXTT7=
EXTT8=
EXTT9=
EXTT10=
EXTT11=
EXTT12=
EXTT13=
EXTT14=
EXTT15=
PLAYORDER=
